<svg xmlns="http://www.w3.org/2000/svg" xmlns:xlink="http://www.w3.org/1999/xlink" width="574.206" height="543.968" viewBox="0 0 574.206 543.968"><defs><style>.a{fill:none;}.b{clip-path:url(#a);}.c{fill:url(#b);}.d,.f,.g{fill:#fff;}.e{opacity:0.35;fill:url(#c);}.f{opacity:0.93;}.g{opacity:0.86;}</style><clipPath id="a"><rect class="a" width="574.206" height="543.968"/></clipPath><linearGradient id="b" x1="0.5" x2="0.457" y2="1.035" gradientUnits="objectBoundingBox"><stop offset="0" stop-color="#dcffff"/><stop offset="0.771" stop-color="#f2ffff"/><stop offset="1" stop-color="#fff"/></linearGradient><linearGradient id="c" x1="0.436" y1="0.683" x2="0.223" y2="0.887" gradientUnits="objectBoundingBox"><stop offset="0" stop-color="#c9f3f9"/><stop offset="1" stop-color="#fff"/></linearGradient></defs><g class="b"><g transform="matrix(0.883, -0.469, 0.469, 0.883, -269.457, -170.554)"><path class="c" d="M372.746,85.864C265.111,96.578,98.8-53.54,78.682,23.359S5.818,222.4,136.515,259.757s244.747,28.782,289.77-30.46C454.832,60.988,432.316,112.09,372.746,85.864Z" transform="translate(87.417 448.252) rotate(16)"/><path class="d" d="M390.605,178.377l-.854-2.417-.854,2.417a8.468,8.468,0,0,1-4.707,4.8h0a8.468,8.468,0,0,1,4.707,4.8l.854,2.417.854-2.417a8.468,8.468,0,0,1,4.707-4.8h0A8.468,8.468,0,0,1,390.605,178.377Z" transform="translate(-1.844 574.339)"/><path class="d" d="M328.923,202.64l-.8-2.26-.8,2.26a7.882,7.882,0,0,1-4.391,4.468h0a7.883,7.883,0,0,1,4.391,4.468l.8,2.26.8-2.26a7.908,7.908,0,0,1,4.442-4.468h0a7.883,7.883,0,0,1-4.442-4.468Z" transform="translate(-78.984 509.867)"/><path class="e" d="M547.88-1231.8s51.114,41.979,49.557,76.234,63.674,48.521,64.24,49.128c49.383,13.068,9.731,43.891,96.512,53.822-1.158-42.982,2.712-136.036,2.712-136.036Z" transform="matrix(0.966, 0.259, -0.259, 0.966, -555.832, 1618.42)"/><path class="d" d="M351.154,255.675l-1.207-3.415-1.207,3.415a11.964,11.964,0,0,1-6.65,6.779h0a11.965,11.965,0,0,1,6.65,6.779l1.207,3.415,1.207-3.415a11.965,11.965,0,0,1,6.65-6.779h0a11.965,11.965,0,0,1-6.65-6.779Z" transform="translate(-16.251 409.639)"/><path class="d" d="M351.154,255.675l-1.207-3.415-1.207,3.415a11.964,11.964,0,0,1-6.65,6.779h0a11.965,11.965,0,0,1,6.65,6.779l1.207,3.415,1.207-3.415a11.965,11.965,0,0,1,6.65-6.779h0a11.965,11.965,0,0,1-6.65-6.779Z" transform="translate(58.171 510.368)"/><path class="f" d="M124.372-1943.156l-3.142,7.367,8.992-1.95Z" transform="translate(-650.333 2350.19) rotate(28)"/><circle class="g" cx="5.5" cy="5.5" r="5.5" transform="translate(336.013 763.529) rotate(28)"/></g></g></svg>