<?xml version="1.0" encoding="UTF-8"?>
<!DOCTYPE svg PUBLIC "-//W3C//DTD SVG 1.1//EN" "http://www.w3.org/Graphics/SVG/1.1/DTD/svg11.dtd">
<!-- Creator: CorelDRAW 2020 (64-Bit) -->
<svg xmlns="http://www.w3.org/2000/svg" xml:space="preserve" width="10.3529in" height="8in" version="1.1" shape-rendering="geometricPrecision" text-rendering="geometricPrecision" image-rendering="optimizeQuality" fill-rule="evenodd" clip-rule="evenodd"
viewBox="0 0 10352.94 8000"
 xmlns:xlink="http://www.w3.org/1999/xlink"
 xmlns:xodm="http://www.corel.com/coreldraw/odm/2003">
 <defs>
   <clipPath id="id0">
    <path d="M2361.74 6666.51l5629.47 0 0 -5333.02 -5629.47 0 0 5333.02z"/>
   </clipPath>
     <linearGradient id="id1" gradientUnits="userSpaceOnUse" x1="5146.2" y1="2832.72" x2="5078.01" y2="5370.17">
      <stop offset="0" stop-opacity="1" stop-color="#DCFFFF"/>
      <stop offset="0.768627" stop-opacity="1" stop-color="#F2FFFF"/>
      <stop offset="1" stop-opacity="1" stop-color="white"/>
     </linearGradient>
     <linearGradient id="id2" gradientUnits="userSpaceOnUse" x1="5787.76" y1="3270.44" x2="5544.75" y2="3694.04">
      <stop offset="0" stop-opacity="1" stop-color="#C9F3F9"/>
      <stop offset="1" stop-opacity="1" stop-color="white"/>
     </linearGradient>
 </defs>
 <g id="Layer_x0020_1">
  <metadata id="CorelCorpID_0Corel-Layer"/>
  <g>
  </g>
  <g clip-path="url(#id0)">
   <g>
    <path fill="url(#id1)" fill-rule="nonzero" d="M6286.69 3205.17c-1010.31,321.64 -2910.35,-779.59 -2946.87,-1.3 -36.52,778.29 -293.88,2056.77 1035.33,2149.18 1329.22,92.41 2405.39,-221.77 2716.63,-881.4 -68.57,-1671.96 -180.54,-1136.15 -805.09,-1266.48z"/>
    <path fill="white" fill-rule="nonzero" d="M6546.47 4390.01l-18.5 -17 3.72 24.85c2.76,22.73 -4.01,45.62 -18.69,63.19l0.01 0c22.77,-2.32 45.53,4.89 62.82,19.92l18.5 17 -3.72 -24.85c-2.76,-22.74 4.01,-45.64 18.68,-63.2l-0 0c-22.77,2.31 -45.53,-4.9 -62.82,-19.92l0 0.01z"/>
    <path fill="white" fill-rule="nonzero" d="M5159.82 4680.24l-17.32 -15.89 3.46 23.24c2.56,21.18 -3.78,42.51 -17.47,58.86l0 0c21.23,-2.19 42.45,4.51 58.55,18.49l17.32 15.89 -3.46 -23.24c-2.47,-21.33 4.01,-42.75 17.9,-59.11l0.01 0c-21.34,2.38 -42.73,-4.24 -59,-18.25l0 -0z"/>
    <path fill="url(#id2)" fill-rule="nonzero" fill-opacity="0.349020" d="M4874.49 3254.56c0,0 580.65,288.62 641.12,619.29 60.47,330.68 715.03,323.49 721.77,328.04 500.52,16.22 189.51,397.91 1040.4,301.9 -105.6,-408.08 -273.31,-1305.57 -273.31,-1305.57l-2129.99 56.34z"/>
    <path fill="white" fill-rule="nonzero" d="M5678.35 3881.03l-26.15 -24.01 5.25 35.11c3.91,32.1 -5.66,64.44 -26.39,89.27l-0 -0.01c32.16,-3.26 64.31,6.92 88.73,28.11l26.15 24.01 -5.25 -35.11c-3.87,-32.1 5.69,-64.43 26.41,-89.25l0 -0.01c-32.17,3.26 -64.31,-6.92 -88.73,-28.11l-0.01 -0z"/>
    <path fill="white" fill-rule="nonzero" d="M6785.77 4410.83l-26.15 -24.01 5.25 35.11c3.91,32.09 -5.67,64.44 -26.39,89.27l-0 -0c32.16,-3.26 64.31,6.92 88.73,28.11l26.15 24.01 -5.25 -35.11c-3.87,-32.11 5.69,-64.44 26.41,-89.26l0 -0c-32.17,3.26 -64.31,-6.92 -88.73,-28.11l-0 0z"/>
    <polygon fill="white" fill-rule="nonzero" fill-opacity="0.929412" points="6123.94,3950.25 6093.11,4022.45 6181.26,4003.37 "/>
    <path fill="white" fill-rule="nonzero" fill-opacity="0.858824" d="M6247.36 4780.12c0.01,-29.77 -24.11,-53.92 -53.89,-53.94 -29.77,-0.01 -53.92,24.11 -53.93,53.89 -0.01,29.78 24.11,53.92 53.89,53.94 29.77,0.01 53.92,-24.11 53.94,-53.89z"/>
   </g>
  </g>
  <polygon fill="none" points="2361.74,6666.51 7991.2,6666.51 7991.2,1333.49 2361.74,1333.49 "/>
 </g>
</svg>
