<?xml version="1.0" encoding="UTF-8"?>
<!DOCTYPE svg PUBLIC "-//W3C//DTD SVG 1.1//EN" "http://www.w3.org/Graphics/SVG/1.1/DTD/svg11.dtd">
<!-- Creator: CorelDRAW 2020 (64-Bit) -->
<svg xmlns="http://www.w3.org/2000/svg" xml:space="preserve" width="11in" height="8.5in" version="1.1" shape-rendering="geometricPrecision" text-rendering="geometricPrecision" image-rendering="optimizeQuality" fill-rule="evenodd" clip-rule="evenodd"
viewBox="0 0 11000 8500"
 xmlns:xlink="http://www.w3.org/1999/xlink"
 xmlns:xodm="http://www.corel.com/coreldraw/odm/2003">
 <defs>
   <clipPath id="id0">
    <path d="M2509.35 7083.17l5981.31 0 0 -5666.33 -5981.31 0 0 5666.33z"/>
   </clipPath>
     <linearGradient id="id1" gradientUnits="userSpaceOnUse" x1="5467.84" y1="3009.77" x2="5395.39" y2="5705.81">
      <stop offset="0" stop-opacity="1" stop-color="#DCFFFF"/>
      <stop offset="0.768627" stop-opacity="1" stop-color="#F2FFFF"/>
      <stop offset="1" stop-opacity="1" stop-color="white"/>
     </linearGradient>
     <linearGradient id="id2" gradientUnits="userSpaceOnUse" x1="6149.49" y1="3474.84" x2="5891.29" y2="3924.92">
      <stop offset="0" stop-opacity="1" stop-color="#C9F3F9"/>
      <stop offset="1" stop-opacity="1" stop-color="white"/>
     </linearGradient>
 </defs>
 <g id="Layer_x0020_1">
  <metadata id="CorelCorpID_0Corel-Layer"/>
  <g>
  </g>
  <g clip-path="url(#id0)">
   <g>
    <path fill="url(#id1)" fill-rule="nonzero" d="M6679.61 3405.49c-1073.46,341.74 -3092.25,-828.31 -3131.05,-1.38 -38.8,826.94 -312.25,2185.32 1100.04,2283.5 1412.29,98.18 2555.73,-235.63 2886.42,-936.49 -72.85,-1776.45 -191.83,-1207.16 -855.41,-1345.63z"/>
    <path fill="white" fill-rule="nonzero" d="M6955.62 4664.39l-19.66 -18.06 3.95 26.4c2.93,24.15 -4.26,48.48 -19.85,67.14l0.01 0c24.19,-2.46 48.38,5.2 66.74,21.16l19.66 18.06 -3.95 -26.4c-2.93,-24.16 4.26,-48.49 19.85,-67.15l-0 0c-24.19,2.46 -48.38,-5.2 -66.74,-21.17l0 0.01z"/>
    <path fill="white" fill-rule="nonzero" d="M5482.31 4972.75l-18.4 -16.88 3.68 24.7c2.72,22.5 -4.01,45.17 -18.56,62.54l0 0c22.56,-2.33 45.1,4.8 62.21,19.65l18.4 16.88 -3.68 -24.7c-2.63,-22.67 4.26,-45.42 19.02,-62.8l0.01 0c-22.67,2.52 -45.4,-4.5 -62.69,-19.39l0 -0z"/>
    <path fill="url(#id2)" fill-rule="nonzero" fill-opacity="0.349020" d="M5179.14 3457.97c0,0 616.94,306.65 681.19,658 64.25,351.34 759.72,343.7 766.88,348.54 531.8,17.24 201.35,422.78 1105.43,320.77 -112.2,-433.58 -290.39,-1387.17 -290.39,-1387.17l-2263.11 59.87z"/>
    <path fill="white" fill-rule="nonzero" d="M6033.24 4123.59l-27.79 -25.52 5.58 37.31c4.15,34.1 -6.02,68.47 -28.04,94.85l-0 -0.01c34.17,-3.46 68.33,7.35 94.27,29.86l27.79 25.52 -5.58 -37.31c-4.11,-34.11 6.04,-68.46 28.06,-94.83l0 -0.01c-34.19,3.47 -68.33,-7.35 -94.28,-29.86l-0.01 -0z"/>
    <path fill="white" fill-rule="nonzero" d="M7209.88 4686.5l-27.79 -25.52 5.58 37.31c4.15,34.1 -6.02,68.47 -28.04,94.85l-0 -0c34.17,-3.47 68.33,7.35 94.27,29.87l27.79 25.52 -5.58 -37.31c-4.11,-34.11 6.04,-68.47 28.06,-94.84l0 -0c-34.19,3.46 -68.33,-7.35 -94.28,-29.87l-0 0z"/>
    <polygon fill="white" fill-rule="nonzero" fill-opacity="0.929412" points="6506.69,4197.14 6473.93,4273.85 6567.59,4253.58 "/>
    <path fill="white" fill-rule="nonzero" fill-opacity="0.858824" d="M6637.81 5078.87c0.01,-31.63 -25.62,-57.29 -57.26,-57.31 -31.63,-0.01 -57.29,25.62 -57.3,57.26 -0.02,31.64 25.62,57.3 57.26,57.31 31.63,0.02 57.29,-25.62 57.31,-57.26z"/>
   </g>
  </g>
  <polygon fill="none" points="2509.35,7083.17 8490.65,7083.17 8490.65,1416.83 2509.35,1416.83 "/>
 </g>
</svg>
